<?xml version="1.0" encoding="iso-8859-1"?>
<!-- Uploaded to: SVG Repo, www.svgrepo.com, Generator: SVG Repo Mixer Tools -->
<svg height="800px" width="800px" version="1.1" id="Layer_1" xmlns="http://www.w3.org/2000/svg" xmlns:xlink="http://www.w3.org/1999/xlink" 
	 viewBox="0 0 512 512" xml:space="preserve">
<path style="fill:#DC85A6;" d="M331.89,129.155c-5.793-10.014-18.607-13.436-28.622-7.643c-6.705,3.878-10.433,10.905-10.442,18.131
	l-73.65-0.004c-0.007-7.224-3.734-14.252-10.438-18.131c-10.01-5.794-22.829-2.375-28.625,7.638
	c-7.685,13.278-11.748,28.439-11.748,43.848c0,48.321,39.311,87.632,87.632,87.632s87.632-39.311,87.632-87.632
	C343.632,157.591,339.571,142.43,331.89,129.155z"/>
<path style="fill:#D6E5F6;" d="M256,302.522c-88.555,0-160.6,72.047-160.6,160.6c0,11.57,9.379,20.948,20.948,20.948h279.304
	c11.569,0,20.948-9.378,20.948-20.948C416.6,374.568,344.555,302.522,256,302.522z"/>
<path style="fill:#A4C6EC;" d="M256,302.522V484.07h139.652c11.569,0,20.948-9.378,20.948-20.948
	C416.6,374.568,344.555,302.522,256,302.522z"/>
<path style="fill:#CE5C82;" d="M331.89,129.155c-5.793-10.014-18.607-13.436-28.622-7.643c-6.705,3.878-10.433,10.905-10.442,18.131
	l-36.828-0.003v120.985c48.321,0,87.632-39.311,87.632-87.632C343.632,157.591,339.571,142.43,331.89,129.155z"/>
<path style="fill:#1D3366;" d="M256,302.522c-11.569,0-20.948,9.38-20.948,20.948v167.583c0,11.57,9.379,20.948,20.948,20.948
	s20.948-9.378,20.948-20.948V323.469C276.948,311.902,267.569,302.522,256,302.522z"/>
<path style="fill:#F6E27D;" d="M363.514,2.412c-7.667-4.036-17.028-2.935-23.552,2.772l-39.934,34.941l-28.125-32.81
	C267.925,2.673,262.114,0,256,0s-11.925,2.673-15.905,7.315l-28.125,32.81L172.037,5.184c-6.525-5.708-15.885-6.807-23.552-2.772
	c-7.667,4.037-12.059,12.379-11.046,20.984L151.403,142.1c1.242,10.551,10.182,18.5,20.804,18.5l83.553-0.001
	c0.081,0.001,0.161,0.001,0.242,0.001h83.789c10.622,0,19.564-7.949,20.804-18.5l13.965-118.704
	C375.573,14.791,371.181,6.448,363.514,2.412z"/>
<path style="fill:#F2D23D;" d="M363.514,2.412c-7.667-4.036-17.028-2.935-23.552,2.772l-39.934,34.941l-28.125-32.81
	C267.925,2.673,262.114,0,256,0v160.6h0.003h83.789c10.622,0,19.564-7.949,20.804-18.5l13.965-118.704
	C375.573,14.791,371.181,6.448,363.514,2.412z"/>
</svg>