<?xml version="1.0" encoding="iso-8859-1"?>
<!-- Uploaded to: SVG Repo, www.svgrepo.com, Generator: SVG Repo Mixer Tools -->
<svg version="1.1" id="Capa_1" xmlns="http://www.w3.org/2000/svg" xmlns:xlink="http://www.w3.org/1999/xlink" 
	 viewBox="0 0 465 465" xml:space="preserve">
<g>
	<path style="fill:#FECC33;" d="M76.375,435h-22.5v15h162.731v-15H106.375c-4.142,0-7.5-3.358-7.5-7.5h-15
		C83.875,431.642,80.517,435,76.375,435z"/>
	<path style="fill:#FF9926;" d="M53.875,420h22.5c4.142,0,7.5,3.358,7.5,7.5h15c0-4.142,3.358-7.5,7.5-7.5h110.231v-15H53.875V420z"
		/>
	<path style="fill:#0C80E4;" d="M166.818,201.399v-49.6h-7.552c-58.113,0-105.391,47.278-105.391,105.391V390h162.731V258.534
		C188.553,254.666,166.818,230.443,166.818,201.399z"/>
	<path style="fill:#4C4C4C;" d="M337.576,244.071h35.894c14.853,0,18.524-8.733,29.318-44.972h-82.579
		c-24.417,0-31.365-10.336-39.411-22.304c-2.052-3.052-4.173-6.208-6.804-9.581c-8.539-10.949-19.608-15.415-38.207-15.415h-22.101
		c-4.142,0-7.5-3.358-7.5-7.5c-5.164,0-10.351,0-15,0c0,4.142-3.358,7.5-7.5,7.5h-1.867v32.299h72.089
		c2.404,0,4.662,1.152,6.073,3.099l10.509,14.501c2.431,3.354,1.682,8.043-1.672,10.474c-1.33,0.964-2.869,1.428-4.395,1.428
		c-2.323,0-4.612-1.075-6.079-3.1l-8.264-11.402h-68.262v2.3c0,23.358,18.995,42.5,42.343,42.671c4.121,0.03,7.445,3.379,7.445,7.5
		v82.115h48.682v-32.327C280.288,269.77,305.987,244.071,337.576,244.071z"/>
	<path style="fill:#0C80E4;" d="M337.576,259.071c-23.318,0-42.288,18.97-42.288,42.288V390h34.788V281.571
		c0-4.142,3.358-7.5,7.5-7.5c0,0,0.002,0,0.002,0v-15H337.576z"/>
	<rect x="295.288" y="435" style="fill:#FECC33;" width="34.788" height="15"/>
	<rect x="295.288" y="405" style="fill:#FF9926;" width="34.788" height="15"/>
	<path style="fill:#FECC33;" d="M206.185,144.3V27.598c-4.107,5.397-8.817,12.22-13.502,20.354
		c-11.117,19.304-24.24,49.972-25.767,88.848h16.769c4.142,0,7.5,3.358,7.5,7.5v0L206.185,144.3L206.185,144.3z"/>
	<path d="M330.076,281.571V390h-34.788v-88.641c0-23.318,18.97-42.288,42.288-42.288h0.002h35.891
		c13.297,0,22.267-5.034,29.082-16.322c5.798-9.602,10.021-23.862,15.868-43.597l0.016-0.053h0.191c4.142,0,7.5-3.358,7.5-7.5
		s-3.358-7.5-7.5-7.5h-5.846c-0.021,0-0.042,0-0.063,0h-92.509c-16.426,0-19.51-4.588-26.962-15.673
		c-2.094-3.115-4.468-6.646-7.424-10.437c-8.684-11.135-19.69-17.572-34.636-20.026V7.5c0-4.142-3.358-7.5-7.5-7.5
		s-7.5,3.358-7.5,7.5v129.307c-0.135,0-0.263-0.007-0.399-0.007h-14.601V7.5c0-2.989-1.774-5.692-4.516-6.881
		c-2.741-1.188-5.928-0.637-8.109,1.406c-0.589,0.551-14.574,13.771-28.573,37.918c-12.188,21.024-26.583,54.534-28.084,97.088
		C88.935,140.85,38.875,193.28,38.875,257.191V457.5c0,4.142,3.358,7.5,7.5,7.5h177.731c4.142,0,7.5-3.358,7.5-7.5V348.686h48.682
		V457.5c0,4.142,3.358,7.5,7.5,7.5h49.788c4.142,0,7.5-3.358,7.5-7.5V281.571c0-4.141-3.357-7.499-7.498-7.5
		c-0.001,0-0.002,0-0.002,0C333.434,274.071,330.076,277.429,330.076,281.571z M216.605,420H106.375c-4.142,0-7.5,3.358-7.5,7.5
		s3.358,7.5,7.5,7.5h110.231v15H53.875v-15h22.5c4.142,0,7.5-3.358,7.5-7.5s-3.358-7.5-7.5-7.5h-22.5v-15h162.731V420z M216.605,390
		H53.875V257.191c0-58.113,47.278-105.391,105.391-105.391h7.552v49.6c0,29.044,21.735,53.266,49.788,57.134V390z M280.288,301.359
		v32.327h-48.682v-82.115c0-4.121-3.324-7.47-7.445-7.5c-23.348-0.171-42.343-19.313-42.343-42.671v-2.3h68.262l8.264,11.402
		c1.467,2.024,3.756,3.1,6.079,3.1c1.525,0,3.065-0.464,4.395-1.428c3.354-2.431,4.103-7.12,1.672-10.474l-10.509-14.501
		c-1.411-1.947-3.669-3.099-6.073-3.099h-72.089V151.8h1.867c4.142,0,7.5-3.358,7.5-7.5v0v0c0-4.142-3.358-7.5-7.5-7.5h-16.769
		c1.527-38.875,14.65-69.544,25.767-88.848c4.685-8.134,9.395-14.957,13.502-20.354V144.3v0v0c0,4.142,3.358,7.5,7.5,7.5h22.101
		c18.599,0,29.668,4.466,38.207,15.415c2.63,3.373,4.752,6.529,6.804,9.581c8.045,11.968,14.994,22.304,39.411,22.304h82.579
		c-10.794,36.239-14.465,44.972-29.318,44.972h-35.894C305.987,244.071,280.288,269.77,280.288,301.359z M330.076,450h-34.788v-15
		h34.788V450z M330.076,420h-34.788v-15h34.788V420z"/>
	<path d="M390.782,301.798c-3.366-2.413-8.051-1.642-10.465,1.725c-2.414,3.366-1.641,8.052,1.725,10.465
		c7.42,5.32,13.621,11.982,18.365,19.521c-14.33,4.715-24.707,18.217-24.707,34.104V457.5c0,4.142,3.358,7.5,7.5,7.5
		s7.5-3.358,7.5-7.5v-89.887c0-9.967,7.018-18.313,16.368-20.391c2.646,7.402,4.058,15.277,4.058,23.311c0,4.142,3.358,7.5,7.5,7.5
		s7.5-3.358,7.5-7.5C426.125,343.361,412.913,317.666,390.782,301.798z"/>
</g>
</svg>